<svg xmlns="http://www.w3.org/2000/svg" viewBox="0 0 260 360">
  <defs>
    <filter id="shadow" x="-50%" y="-50%" width="200%" height="200%">
      <feDropShadow dx="0" dy="10" stdDeviation="12" flood-color="#000" flood-opacity=".5"/>
    </filter>
    <linearGradient id="shine" x1="0" y1="0" x2="1" y2="1">
      <stop offset="0" stop-color="#ffe680"/><stop offset="1" stop-color="#ffcf33"/>
    </linearGradient>
  </defs>
  <rect width="360" height="360" rx="36" fill="#101010"/>
  <g filter="url(#shadow)" transform="translate(20,16)">
    <!-- ears -->
    <circle cx="84" cy="118" r="44" fill="#5a3b25"/>
    <circle cx="236" cy="118" r="44" fill="#5a3b25"/>
    <circle cx="84" cy="118" r="26" fill="#d9b996"/>
    <circle cx="236" cy="118" r="26" fill="#d9b996"/>
    <!-- head -->
    <ellipse cx="160" cy="178" rx="130" ry="108" fill="#6f4a2e"/>
    <!-- face mask -->
    <ellipse cx="160" cy="196" rx="106" ry="82" fill="#e4c7a6"/>
    <!-- eyes (under glasses) -->
    <circle cx="130" cy="186" r="14" fill="#fff"/>
    <circle cx="190" cy="186" r="14" fill="#fff"/>
    <circle cx="130" cy="186" r="6" fill="#2b2b2b"/>
    <circle cx="190" cy="186" r="6" fill="#2b2b2b"/>
    <!-- smile -->
    <path d="M100 228q60 34 120 0" fill="none" stroke="#2b2b2b" stroke-width="8" stroke-linecap="round"/>
    <!-- gold tooth -->
    <rect x="172" y="226" width="10" height="12" rx="2" fill="url(#shine)" stroke="#c8a904" stroke-width="2"/>
    <!-- banana hat -->
    <path d="M96 128c42-30 100-30 146 0-24 18-122 22-146 0z" fill="#ffeb3b" stroke="#c8a904" stroke-width="6" stroke-linejoin="round"/>
    <!-- sunglasses -->
    <g>
      <rect x="98" y="168" width="70" height="34" rx="10" fill="#0b0b0b"/>
      <rect x="174" y="168" width="70" height="34" rx="10" fill="#0b0b0b"/>
      <rect x="168" y="178" width="12" height="12" fill="#0b0b0b"/>
      <path d="M102 172l26-8m118 8l-26-8" stroke="#ffffff" stroke-opacity=".2" stroke-width="4"/>
    </g>
    <!-- $BSC badge -->
    <g transform="translate(240,258)">
      <circle cx="0" cy="0" r="34" fill="url(#shine)" stroke="#c8a904" stroke-width="4"/>
      <text x="0" y="6" text-anchor="middle" font-family="Impact, system-ui, Arial, sans-serif" font-size="22" fill="#3a2a00">$BSC</text>
    </g>
  </g>
</svg>
