<svg xmlns="http://www.w3.org/2000/svg" viewBox="0 0 640 420">

  <rect width="640" height="420" fill="#121212"/>
  <g opacity=".32">
    <ellipse cx="120" cy="120" rx="90" ry="40" fill="#ff1744"/>
    <ellipse cx="520" cy="160" rx="80" ry="36" fill="#00e5ff"/>
    <ellipse cx="300" cy="300" rx="120" ry="46" fill="#c6ff00"/>
  </g>

  <g transform="translate(160,40)">
    
  <g>
    <path d="M40 200q120-120 240 0v120H40z" fill="#263238"/>
    
    <g>
      <circle cx="84" cy="118" r="44" fill="#5a3b25"/>
      <circle cx="236" cy="118" r="44" fill="#5a3b25"/>
      <circle cx="84" cy="118" r="26" fill="#d9b996"/>
      <circle cx="236" cy="118" r="26" fill="#d9b996"/>
      <ellipse cx="160" cy="178" rx="130" ry="108" fill="#6f4a2e"/>
      <ellipse cx="160" cy="196" rx="106" ry="82" fill="#e4c7a6"/>
    </g>
    
    
      <circle cx="130" cy="186" r="14" fill="#fff"/>
      <circle cx="190" cy="186" r="14" fill="#fff"/>
      <circle cx="130" cy="186" r="6" fill="#2b2b2b"/>
      <circle cx="190" cy="186" r="6" fill="#2b2b2b"/>
      <!-- blinking lids -->
      <ellipse cx="130" cy="186" rx="14" ry="0" fill="#e4c7a6">
        <animate attributeName="ry" values="0;14;0" dur="6s" begin="1s" keyTimes="0;.05;.1" repeatCount="indefinite"/>
      </ellipse>
      <ellipse cx="190" cy="186" rx="14" ry="0" fill="#e4c7a6">
        <animate attributeName="ry" values="0;14;0" dur="6s" begin="2s" keyTimes="0;.05;.1" repeatCount="indefinite"/>
      </ellipse>
    
    <path d="M110 228q60 34 100 0" fill="none" stroke="#2b2b2b" stroke-width="8" stroke-linecap="round"/>
    <animateTransform attributeName="transform" type="translate" values="0 0;0 -3;0 0" dur="3s" repeatCount="indefinite"/>
  </g>

  </g>
  <text x="320" y="398" text-anchor="middle" font-family="Impact, system-ui, Arial, sans-serif" font-size="30" stroke="#000" stroke-width="5" paint-order="stroke" fill="#fff">Ultra-deflationary patience.</text>
</svg>
