<svg xmlns="http://www.w3.org/2000/svg" viewBox="0 0 640 420">

  <rect width="640" height="420" fill="#07090f"/>
  <g fill="#fff">
    <circle cx="40" cy="30" r="1"/>
    <circle cx="120" cy="60" r="1.5"/>
    <circle cx="220" cy="40" r="1"/>
    <circle cx="420" cy="30" r="1"/>
    <circle cx="500" cy="80" r="1.2"/>
    <circle cx="580" cy="50" r="1"/>
    <circle cx="70" cy="200" r="1.4"/>
    <circle cx="320" cy="140" r="1.2"/>
    <circle cx="560" cy="220" r="1.6"/>
    <circle cx="300" cy="300" r="1.2"/>
    <circle cx="460" cy="260" r="1.2"/>
    <circle cx="90" cy="320" r="1"/>
  </g>
  <circle cx="520" cy="110" r="36" fill="#cfd8dc"/>

  <g transform="translate(160,40)">
    
  
    <g>
      <circle cx="84" cy="118" r="44" fill="#5a3b25"/>
      <circle cx="236" cy="118" r="44" fill="#5a3b25"/>
      <circle cx="84" cy="118" r="26" fill="#d9b996"/>
      <circle cx="236" cy="118" r="26" fill="#d9b996"/>
      <ellipse cx="160" cy="178" rx="130" ry="108" fill="#6f4a2e"/>
      <ellipse cx="160" cy="196" rx="106" ry="82" fill="#e4c7a6"/>
    </g>
    
  
      <circle cx="130" cy="186" r="14" fill="#fff"/>
      <circle cx="190" cy="186" r="14" fill="#fff"/>
      <circle cx="130" cy="186" r="6" fill="#2b2b2b"/>
      <circle cx="190" cy="186" r="6" fill="#2b2b2b"/>
      <!-- blinking lids -->
      <ellipse cx="130" cy="186" rx="14" ry="0" fill="#e4c7a6">
        <animate attributeName="ry" values="0;14;0" dur="6s" begin="1s" keyTimes="0;.05;.1" repeatCount="indefinite"/>
      </ellipse>
      <ellipse cx="190" cy="186" rx="14" ry="0" fill="#e4c7a6">
        <animate attributeName="ry" values="0;14;0" dur="6s" begin="2s" keyTimes="0;.05;.1" repeatCount="indefinite"/>
      </ellipse>
    
  <path d="M100 228q60 34 120 0" fill="none" stroke="#2b2b2b" stroke-width="8" stroke-linecap="round"/>
  <circle cx="84" cy="140" r="6" fill="#ffd54f"/>
  <rect x="82" y="146" width="4" height="14" fill="#ffd54f">
    <animateTransform attributeName="transform" type="rotate" values="-10 84 146;10 84 146;-10 84 146" dur="2s" repeatCount="indefinite"/>
  </rect>
  <circle cx="236" cy="140" r="6" fill="#ffd54f"/>
  <rect x="234" y="146" width="4" height="14" fill="#ffd54f">
    <animateTransform attributeName="transform" type="rotate" values="10 236 146;-10 236 146;10 236 146" dur="2s" repeatCount="indefinite"/>
  </rect>
  <circle cx="160" cy="192" r="140" fill="none" stroke="#cfd8dc" stroke-width="10"/>

  </g>
  <text x="320" y="398" text-anchor="middle" font-family="Impact, system-ui, Arial, sans-serif" font-size="30" stroke="#000" stroke-width="5" paint-order="stroke" fill="#fff">Sleep-to-Earn economy.</text>
</svg>
