<svg xmlns="http://www.w3.org/2000/svg" viewBox="0 0 640 420">

  <defs>
    <linearGradient id="sky" x1="0" y1="0" x2="0" y2="1">
      <stop offset="0" stop-color="#6a5acd"/><stop offset="1" stop-color="#111"/>
    </linearGradient>
    <pattern id="grid" width="30" height="30" patternUnits="userSpaceOnUse">
      <path d="M0 0H30V30" fill="none" stroke="#7fffd4" stroke-width="0.8" opacity=".4"/>
      <path d="M0 0V30M0 0H30" stroke="#7fffd4" stroke-width="0.8" opacity=".6"/>
    </pattern>
  </defs>
  <rect width="640" height="420" fill="url(#sky)"/>
  <g>
    <rect x="0" y="260" width="640" height="160" fill="url(#grid)"/>
    <animateTransform attributeName="transform" type="translate" from="0 0" to="-60 0" dur="6s" repeatCount="indefinite"/>
  </g>

  <g transform="translate(160,40)">
    
  
    <g>
      <circle cx="84" cy="118" r="44" fill="#5a3b25"/>
      <circle cx="236" cy="118" r="44" fill="#5a3b25"/>
      <circle cx="84" cy="118" r="26" fill="#d9b996"/>
      <circle cx="236" cy="118" r="26" fill="#d9b996"/>
      <ellipse cx="160" cy="178" rx="130" ry="108" fill="#6f4a2e"/>
      <ellipse cx="160" cy="196" rx="106" ry="82" fill="#e4c7a6"/>
    </g>
    
  <path d="M100 228q60 34 120 0" fill="none" stroke="#2b2b2b" stroke-width="8" stroke-linecap="round"/>
  <!-- headband -->
  <rect x="100" y="154" width="120" height="12" rx="6" fill="#ffe46d">
    <animate attributeName="fill" values="#ffe46d;#ffd54f;#ffe46d" dur="3s" repeatCount="indefinite"/>
  </rect>
  <!-- shades -->
  <g>
    <rect x="98" y="164" width="72" height="36" rx="12" fill="#0b0b0b"/>
    <rect x="174" y="164" width="72" height="36" rx="12" fill="#0b0b0b"/>
    <rect x="168" y="176" width="12" height="12" fill="#0b0b0b"/>
    <path d="M102 172l26-8m118 8l-26-8" stroke="#ffffff" stroke-opacity=".2" stroke-width="4">
      <animate attributeName="stroke-opacity" values=".2;.6;.2" dur="2.5s" repeatCount="indefinite"/>
    </path>
  </g>

  </g>
  <text x="320" y="398" text-anchor="middle" font-family="Impact, system-ui, Arial, sans-serif" font-size="30" stroke="#000" stroke-width="5" paint-order="stroke" fill="#fff">Slowly but surely... to the moon.</text>
</svg>
