<svg xmlns="http://www.w3.org/2000/svg" viewBox="0 0 640 420">

  <defs><linearGradient id="holo" x1="0" y="0" x2="1" y2="1">
      <stop offset="0" stop-color="#ff9a9e"/><stop offset="0.5" stop-color="#fad0c4"/><stop offset="1" stop-color="#fbc2eb"/>
    </linearGradient></defs>
  <rect width="640" height="420" fill="#0f0f0f"/>
  <rect x="20" y="20" width="600" height="380" rx="28" fill="url(#holo)" opacity=".12"/>

  <g transform="translate(160,40)">
    
  
    <g>
      <circle cx="84" cy="118" r="44" fill="#5a3b25"/>
      <circle cx="236" cy="118" r="44" fill="#5a3b25"/>
      <circle cx="84" cy="118" r="26" fill="#d9b996"/>
      <circle cx="236" cy="118" r="26" fill="#d9b996"/>
      <ellipse cx="160" cy="178" rx="130" ry="108" fill="#6f4a2e"/>
      <ellipse cx="160" cy="196" rx="106" ry="82" fill="#e4c7a6"/>
    </g>
    
  
      <circle cx="130" cy="186" r="14" fill="#fff"/>
      <circle cx="190" cy="186" r="14" fill="#fff"/>
      <circle cx="130" cy="186" r="6" fill="#2b2b2b"/>
      <circle cx="190" cy="186" r="6" fill="#2b2b2b"/>
      <!-- blinking lids -->
      <ellipse cx="130" cy="186" rx="14" ry="0" fill="#e4c7a6">
        <animate attributeName="ry" values="0;14;0" dur="6s" begin="1s" keyTimes="0;.05;.1" repeatCount="indefinite"/>
      </ellipse>
      <ellipse cx="190" cy="186" rx="14" ry="0" fill="#e4c7a6">
        <animate attributeName="ry" values="0;14;0" dur="6s" begin="2s" keyTimes="0;.05;.1" repeatCount="indefinite"/>
      </ellipse>
    
  <path d="M100 228q60 34 120 0" fill="none" stroke="#2b2b2b" stroke-width="8" stroke-linecap="round"/>
  <path d="M88 144l24-20 24 26 24-26 24 20v16H88z" fill="#ffd54f" stroke="#c8a904" stroke-width="3">
    <animate attributeName="fill" values="#ffd54f;#ffea80;#ffd54f" dur="2.6s" repeatCount="indefinite"/>
  </path>
  <path d="M110 238q50 24 100 0" stroke="#ffd54f" stroke-width="6" fill="none" stroke-linecap="round">
    <animate attributeName="stroke-width" values="6;8;6" dur="2.2s" repeatCount="indefinite"/>
  </path>
  <circle cx="160" cy="246" r="6" fill="#ffd54f">
    <animate attributeName="r" values="6;9;6" dur="2.2s" repeatCount="indefinite"/>
  </circle>

  </g>
  <text x="320" y="398" text-anchor="middle" font-family="Impact, system-ui, Arial, sans-serif" font-size="30" stroke="#000" stroke-width="5" paint-order="stroke" fill="#fff">Lazy by design.</text>
</svg>
