<svg xmlns="http://www.w3.org/2000/svg" viewBox="0 0 640 420">

  <defs><pattern id="scan" width="4" height="4" patternUnits="userSpaceOnUse">
    <rect width="4" height="2" fill="#0a0a0a"/><rect y="2" width="4" height="2" fill="#151515"/>
  </pattern></defs>
  <rect width="640" height="420" fill="#0d0d0d"/>
  <rect width="640" height="420" fill="url(#scan)" opacity=".55">
    <animate attributeName="opacity" values=".55;.35;.55" dur="1s" repeatCount="indefinite"/>
  </rect>

  <g transform="translate(160,40)">
    
  
    <g>
      <circle cx="84" cy="118" r="44" fill="#5a3b25"/>
      <circle cx="236" cy="118" r="44" fill="#5a3b25"/>
      <circle cx="84" cy="118" r="26" fill="#d9b996"/>
      <circle cx="236" cy="118" r="26" fill="#d9b996"/>
      <ellipse cx="160" cy="178" rx="130" ry="108" fill="#6f4a2e"/>
      <ellipse cx="160" cy="196" rx="106" ry="82" fill="#e4c7a6"/>
    </g>
    
  
      <circle cx="130" cy="186" r="14" fill="#fff"/>
      <circle cx="190" cy="186" r="14" fill="#fff"/>
      <circle cx="130" cy="186" r="6" fill="#2b2b2b"/>
      <circle cx="190" cy="186" r="6" fill="#2b2b2b"/>
      <!-- blinking lids -->
      <ellipse cx="130" cy="186" rx="14" ry="0" fill="#e4c7a6">
        <animate attributeName="ry" values="0;14;0" dur="6s" begin="1s" keyTimes="0;.05;.1" repeatCount="indefinite"/>
      </ellipse>
      <ellipse cx="190" cy="186" rx="14" ry="0" fill="#e4c7a6">
        <animate attributeName="ry" values="0;14;0" dur="6s" begin="2s" keyTimes="0;.05;.1" repeatCount="indefinite"/>
      </ellipse>
    
  <path d="M100 228q60 34 120 0" fill="none" stroke="#2b2b2b" stroke-width="8" stroke-linecap="round"/>
  <g transform="translate(160,140)">
    <circle cx="-60" cy="-48" r="12" fill="#ff8a80"/>
    <circle cx="-36" cy="-54" r="12" fill="#ffd54f"/>
    <circle cx="-12" cy="-58" r="12" fill="#80deea"/>
    <circle cx="12" cy="-58" r="12" fill="#81c784"/>
    <circle cx="36" cy="-54" r="12" fill="#ce93d8"/>
    <circle cx="60" cy="-48" r="12" fill="#ffcc80"/>
    <g>
      <polygon points="0,-70 4,-60 14,-58 4,-56 0,-46 -4,-56 -14,-58 -4,-60" fill="#fff59d" opacity=".7">
        <animate attributeName="opacity" values=".2;.9;.2" dur="3s" repeatCount="indefinite"/>
      </polygon>
    </g>
  </g>

  </g>
  <text x="320" y="398" text-anchor="middle" font-family="Impact, system-ui, Arial, sans-serif" font-size="30" stroke="#000" stroke-width="5" paint-order="stroke" fill="#fff">Hold? I'm already holding the branch.</text>
</svg>
